<mxfile host="app.diagrams.net" modified="2020-09-15T07:52:17.382Z" agent="5.0 (Windows NT 10.0; Win64; x64) AppleWebKit/537.36 (KHTML, like Gecko) Chrome/85.0.4183.102 Safari/537.36" etag="RWO5nHwr72IOmxCrmR0g" version="13.7.1" type="github">
  <diagram id="NpCKG0ksMmurS8767rCJ" name="Page-1">
    <mxGraphModel dx="1422" dy="794" grid="1" gridSize="10" guides="1" tooltips="1" connect="1" arrows="1" fold="1" page="1" pageScale="1" pageWidth="827" pageHeight="1169" math="0" shadow="0">
      <root>
        <mxCell id="0" />
        <mxCell id="1" parent="0" />
        <mxCell id="3c1BVGUAf-bqTjl7Y1fi-86" value="Author" style="shape=table;html=1;whiteSpace=wrap;startSize=30;container=1;collapsible=0;childLayout=tableLayout;fixedRows=1;rowLines=0;fontStyle=1;align=center;swimlaneFillColor=#ffffff;strokeColor=#6c8ebf;fillColor=#dae8fc;" vertex="1" parent="1">
          <mxGeometry x="40" y="280" width="340" height="180" as="geometry" />
        </mxCell>
        <mxCell id="3c1BVGUAf-bqTjl7Y1fi-87" value="" style="shape=partialRectangle;html=1;whiteSpace=wrap;collapsible=0;dropTarget=0;pointerEvents=0;top=0;left=0;bottom=1;right=0;points=[[0,0.5],[1,0.5]];portConstraint=eastwest;strokeColor=#9673a6;fontColor=#FFFFFF;fillColor=#A680B8;" vertex="1" parent="3c1BVGUAf-bqTjl7Y1fi-86">
          <mxGeometry y="30" width="340" height="20" as="geometry" />
        </mxCell>
        <mxCell id="3c1BVGUAf-bqTjl7Y1fi-88" value="Name" style="shape=partialRectangle;html=1;whiteSpace=wrap;connectable=0;fillColor=none;top=0;left=0;bottom=0;right=0;overflow=hidden;fontColor=#FFFFFF;" vertex="1" parent="3c1BVGUAf-bqTjl7Y1fi-87">
          <mxGeometry width="70" height="20" as="geometry" />
        </mxCell>
        <mxCell id="3c1BVGUAf-bqTjl7Y1fi-89" value="Type" style="shape=partialRectangle;html=1;whiteSpace=wrap;connectable=0;fillColor=none;top=0;left=0;bottom=0;right=0;align=left;spacingLeft=6;overflow=hidden;fontColor=#FFFFFF;" vertex="1" parent="3c1BVGUAf-bqTjl7Y1fi-87">
          <mxGeometry x="70" width="70" height="20" as="geometry" />
        </mxCell>
        <mxCell id="3c1BVGUAf-bqTjl7Y1fi-90" value="Description" style="shape=partialRectangle;html=1;whiteSpace=wrap;connectable=0;fillColor=none;top=0;left=0;bottom=0;right=0;align=left;spacingLeft=6;overflow=hidden;fontColor=#FFFFFF;" vertex="1" parent="3c1BVGUAf-bqTjl7Y1fi-87">
          <mxGeometry x="140" width="200" height="20" as="geometry" />
        </mxCell>
        <mxCell id="3c1BVGUAf-bqTjl7Y1fi-91" value="" style="shape=partialRectangle;html=1;whiteSpace=wrap;collapsible=0;dropTarget=0;pointerEvents=0;fillColor=none;top=0;left=0;bottom=0;right=0;points=[[0,0.5],[1,0.5]];portConstraint=eastwest;" vertex="1" parent="3c1BVGUAf-bqTjl7Y1fi-86">
          <mxGeometry y="50" width="340" height="20" as="geometry" />
        </mxCell>
        <mxCell id="3c1BVGUAf-bqTjl7Y1fi-92" value="ID" style="shape=partialRectangle;html=1;whiteSpace=wrap;connectable=0;fillColor=none;top=0;left=0;bottom=0;right=0;overflow=hidden;" vertex="1" parent="3c1BVGUAf-bqTjl7Y1fi-91">
          <mxGeometry width="70" height="20" as="geometry" />
        </mxCell>
        <mxCell id="3c1BVGUAf-bqTjl7Y1fi-93" value="GUID" style="shape=partialRectangle;html=1;whiteSpace=wrap;connectable=0;fillColor=none;top=0;left=0;bottom=0;right=0;align=left;spacingLeft=6;overflow=hidden;" vertex="1" parent="3c1BVGUAf-bqTjl7Y1fi-91">
          <mxGeometry x="70" width="70" height="20" as="geometry" />
        </mxCell>
        <mxCell id="3c1BVGUAf-bqTjl7Y1fi-94" value="Unicalidentificator" style="shape=partialRectangle;html=1;whiteSpace=wrap;connectable=0;fillColor=none;top=0;left=0;bottom=0;right=0;align=left;spacingLeft=6;overflow=hidden;" vertex="1" parent="3c1BVGUAf-bqTjl7Y1fi-91">
          <mxGeometry x="140" width="200" height="20" as="geometry" />
        </mxCell>
        <mxCell id="3c1BVGUAf-bqTjl7Y1fi-95" value="" style="shape=partialRectangle;html=1;whiteSpace=wrap;collapsible=0;dropTarget=0;pointerEvents=0;fillColor=none;top=0;left=0;bottom=0;right=0;points=[[0,0.5],[1,0.5]];portConstraint=eastwest;" vertex="1" parent="3c1BVGUAf-bqTjl7Y1fi-86">
          <mxGeometry y="70" width="340" height="20" as="geometry" />
        </mxCell>
        <mxCell id="3c1BVGUAf-bqTjl7Y1fi-96" value="Name" style="shape=partialRectangle;html=1;whiteSpace=wrap;connectable=0;fillColor=none;top=0;left=0;bottom=0;right=0;overflow=hidden;" vertex="1" parent="3c1BVGUAf-bqTjl7Y1fi-95">
          <mxGeometry width="70" height="20" as="geometry" />
        </mxCell>
        <mxCell id="3c1BVGUAf-bqTjl7Y1fi-97" value="String" style="shape=partialRectangle;html=1;whiteSpace=wrap;connectable=0;fillColor=none;top=0;left=0;bottom=0;right=0;align=left;spacingLeft=6;overflow=hidden;" vertex="1" parent="3c1BVGUAf-bqTjl7Y1fi-95">
          <mxGeometry x="70" width="70" height="20" as="geometry" />
        </mxCell>
        <mxCell id="3c1BVGUAf-bqTjl7Y1fi-98" value="Title in head of question." style="shape=partialRectangle;html=1;whiteSpace=wrap;connectable=0;fillColor=none;top=0;left=0;bottom=0;right=0;align=left;spacingLeft=6;overflow=hidden;" vertex="1" parent="3c1BVGUAf-bqTjl7Y1fi-95">
          <mxGeometry x="140" width="200" height="20" as="geometry" />
        </mxCell>
        <mxCell id="3c1BVGUAf-bqTjl7Y1fi-99" value="" style="shape=partialRectangle;html=1;whiteSpace=wrap;collapsible=0;dropTarget=0;pointerEvents=0;fillColor=none;top=0;left=0;bottom=0;right=0;points=[[0,0.5],[1,0.5]];portConstraint=eastwest;" vertex="1" parent="3c1BVGUAf-bqTjl7Y1fi-86">
          <mxGeometry y="90" width="340" height="20" as="geometry" />
        </mxCell>
        <mxCell id="3c1BVGUAf-bqTjl7Y1fi-100" value="Body" style="shape=partialRectangle;html=1;whiteSpace=wrap;connectable=0;fillColor=none;top=0;left=0;bottom=0;right=0;overflow=hidden;" vertex="1" parent="3c1BVGUAf-bqTjl7Y1fi-99">
          <mxGeometry width="70" height="20" as="geometry" />
        </mxCell>
        <mxCell id="3c1BVGUAf-bqTjl7Y1fi-101" value="String" style="shape=partialRectangle;html=1;whiteSpace=wrap;connectable=0;fillColor=none;top=0;left=0;bottom=0;right=0;align=left;spacingLeft=6;overflow=hidden;" vertex="1" parent="3c1BVGUAf-bqTjl7Y1fi-99">
          <mxGeometry x="70" width="70" height="20" as="geometry" />
        </mxCell>
        <mxCell id="3c1BVGUAf-bqTjl7Y1fi-102" value="Body for question." style="shape=partialRectangle;html=1;whiteSpace=wrap;connectable=0;fillColor=none;top=0;left=0;bottom=0;right=0;align=left;spacingLeft=6;overflow=hidden;" vertex="1" parent="3c1BVGUAf-bqTjl7Y1fi-99">
          <mxGeometry x="140" width="200" height="20" as="geometry" />
        </mxCell>
        <mxCell id="3c1BVGUAf-bqTjl7Y1fi-103" value="" style="shape=partialRectangle;html=1;whiteSpace=wrap;collapsible=0;dropTarget=0;pointerEvents=0;fillColor=none;top=0;left=0;bottom=0;right=0;points=[[0,0.5],[1,0.5]];portConstraint=eastwest;" vertex="1" parent="3c1BVGUAf-bqTjl7Y1fi-86">
          <mxGeometry y="110" width="340" height="20" as="geometry" />
        </mxCell>
        <mxCell id="3c1BVGUAf-bqTjl7Y1fi-104" value="updateAt" style="shape=partialRectangle;html=1;whiteSpace=wrap;connectable=0;fillColor=none;top=0;left=0;bottom=0;right=0;overflow=hidden;" vertex="1" parent="3c1BVGUAf-bqTjl7Y1fi-103">
          <mxGeometry width="70" height="20" as="geometry" />
        </mxCell>
        <mxCell id="3c1BVGUAf-bqTjl7Y1fi-105" value="String" style="shape=partialRectangle;html=1;whiteSpace=wrap;connectable=0;fillColor=none;top=0;left=0;bottom=0;right=0;align=left;spacingLeft=6;overflow=hidden;" vertex="1" parent="3c1BVGUAf-bqTjl7Y1fi-103">
          <mxGeometry x="70" width="70" height="20" as="geometry" />
        </mxCell>
        <mxCell id="3c1BVGUAf-bqTjl7Y1fi-106" value="Date of last update" style="shape=partialRectangle;html=1;whiteSpace=wrap;connectable=0;fillColor=none;top=0;left=0;bottom=0;right=0;align=left;spacingLeft=6;overflow=hidden;" vertex="1" parent="3c1BVGUAf-bqTjl7Y1fi-103">
          <mxGeometry x="140" width="200" height="20" as="geometry" />
        </mxCell>
        <mxCell id="3c1BVGUAf-bqTjl7Y1fi-107" style="shape=partialRectangle;html=1;whiteSpace=wrap;collapsible=0;dropTarget=0;pointerEvents=0;fillColor=none;top=0;left=0;bottom=0;right=0;points=[[0,0.5],[1,0.5]];portConstraint=eastwest;" vertex="1" parent="3c1BVGUAf-bqTjl7Y1fi-86">
          <mxGeometry y="130" width="340" height="20" as="geometry" />
        </mxCell>
        <mxCell id="3c1BVGUAf-bqTjl7Y1fi-108" style="shape=partialRectangle;html=1;whiteSpace=wrap;connectable=0;fillColor=none;top=0;left=0;bottom=0;right=0;overflow=hidden;" vertex="1" parent="3c1BVGUAf-bqTjl7Y1fi-107">
          <mxGeometry width="70" height="20" as="geometry" />
        </mxCell>
        <mxCell id="3c1BVGUAf-bqTjl7Y1fi-109" style="shape=partialRectangle;html=1;whiteSpace=wrap;connectable=0;fillColor=none;top=0;left=0;bottom=0;right=0;align=left;spacingLeft=6;overflow=hidden;" vertex="1" parent="3c1BVGUAf-bqTjl7Y1fi-107">
          <mxGeometry x="70" width="70" height="20" as="geometry" />
        </mxCell>
        <mxCell id="3c1BVGUAf-bqTjl7Y1fi-110" style="shape=partialRectangle;html=1;whiteSpace=wrap;connectable=0;fillColor=none;top=0;left=0;bottom=0;right=0;align=left;spacingLeft=6;overflow=hidden;" vertex="1" parent="3c1BVGUAf-bqTjl7Y1fi-107">
          <mxGeometry x="140" width="200" height="20" as="geometry" />
        </mxCell>
        <mxCell id="3c1BVGUAf-bqTjl7Y1fi-4" value="Question" style="shape=table;html=1;whiteSpace=wrap;startSize=30;container=1;collapsible=0;childLayout=tableLayout;fixedRows=1;rowLines=0;fontStyle=1;align=center;swimlaneFillColor=#ffffff;strokeColor=#6c8ebf;fillColor=#dae8fc;" vertex="1" parent="1">
          <mxGeometry x="40" y="40" width="340" height="200" as="geometry" />
        </mxCell>
        <mxCell id="3c1BVGUAf-bqTjl7Y1fi-5" value="" style="shape=partialRectangle;html=1;whiteSpace=wrap;collapsible=0;dropTarget=0;pointerEvents=0;top=0;left=0;bottom=1;right=0;points=[[0,0.5],[1,0.5]];portConstraint=eastwest;strokeColor=#9673a6;fontColor=#FFFFFF;fillColor=#A680B8;" vertex="1" parent="3c1BVGUAf-bqTjl7Y1fi-4">
          <mxGeometry y="30" width="340" height="20" as="geometry" />
        </mxCell>
        <mxCell id="3c1BVGUAf-bqTjl7Y1fi-6" value="Name" style="shape=partialRectangle;html=1;whiteSpace=wrap;connectable=0;fillColor=none;top=0;left=0;bottom=0;right=0;overflow=hidden;fontColor=#FFFFFF;" vertex="1" parent="3c1BVGUAf-bqTjl7Y1fi-5">
          <mxGeometry width="70" height="20" as="geometry" />
        </mxCell>
        <mxCell id="3c1BVGUAf-bqTjl7Y1fi-7" value="Type" style="shape=partialRectangle;html=1;whiteSpace=wrap;connectable=0;fillColor=none;top=0;left=0;bottom=0;right=0;align=left;spacingLeft=6;overflow=hidden;fontColor=#FFFFFF;" vertex="1" parent="3c1BVGUAf-bqTjl7Y1fi-5">
          <mxGeometry x="70" width="70" height="20" as="geometry" />
        </mxCell>
        <mxCell id="3c1BVGUAf-bqTjl7Y1fi-77" value="Description" style="shape=partialRectangle;html=1;whiteSpace=wrap;connectable=0;fillColor=none;top=0;left=0;bottom=0;right=0;align=left;spacingLeft=6;overflow=hidden;fontColor=#FFFFFF;" vertex="1" parent="3c1BVGUAf-bqTjl7Y1fi-5">
          <mxGeometry x="140" width="200" height="20" as="geometry" />
        </mxCell>
        <mxCell id="3c1BVGUAf-bqTjl7Y1fi-8" value="" style="shape=partialRectangle;html=1;whiteSpace=wrap;collapsible=0;dropTarget=0;pointerEvents=0;fillColor=none;top=0;left=0;bottom=0;right=0;points=[[0,0.5],[1,0.5]];portConstraint=eastwest;" vertex="1" parent="3c1BVGUAf-bqTjl7Y1fi-4">
          <mxGeometry y="50" width="340" height="20" as="geometry" />
        </mxCell>
        <mxCell id="3c1BVGUAf-bqTjl7Y1fi-9" value="ID" style="shape=partialRectangle;html=1;whiteSpace=wrap;connectable=0;fillColor=none;top=0;left=0;bottom=0;right=0;overflow=hidden;" vertex="1" parent="3c1BVGUAf-bqTjl7Y1fi-8">
          <mxGeometry width="70" height="20" as="geometry" />
        </mxCell>
        <mxCell id="3c1BVGUAf-bqTjl7Y1fi-10" value="GUID" style="shape=partialRectangle;html=1;whiteSpace=wrap;connectable=0;fillColor=none;top=0;left=0;bottom=0;right=0;align=left;spacingLeft=6;overflow=hidden;" vertex="1" parent="3c1BVGUAf-bqTjl7Y1fi-8">
          <mxGeometry x="70" width="70" height="20" as="geometry" />
        </mxCell>
        <mxCell id="3c1BVGUAf-bqTjl7Y1fi-78" value="Unicalidentificator" style="shape=partialRectangle;html=1;whiteSpace=wrap;connectable=0;fillColor=none;top=0;left=0;bottom=0;right=0;align=left;spacingLeft=6;overflow=hidden;" vertex="1" parent="3c1BVGUAf-bqTjl7Y1fi-8">
          <mxGeometry x="140" width="200" height="20" as="geometry" />
        </mxCell>
        <mxCell id="3c1BVGUAf-bqTjl7Y1fi-42" value="" style="shape=partialRectangle;html=1;whiteSpace=wrap;collapsible=0;dropTarget=0;pointerEvents=0;fillColor=none;top=0;left=0;bottom=0;right=0;points=[[0,0.5],[1,0.5]];portConstraint=eastwest;" vertex="1" parent="3c1BVGUAf-bqTjl7Y1fi-4">
          <mxGeometry y="70" width="340" height="20" as="geometry" />
        </mxCell>
        <mxCell id="3c1BVGUAf-bqTjl7Y1fi-43" value="Title" style="shape=partialRectangle;html=1;whiteSpace=wrap;connectable=0;fillColor=none;top=0;left=0;bottom=0;right=0;overflow=hidden;" vertex="1" parent="3c1BVGUAf-bqTjl7Y1fi-42">
          <mxGeometry width="70" height="20" as="geometry" />
        </mxCell>
        <mxCell id="3c1BVGUAf-bqTjl7Y1fi-44" value="String" style="shape=partialRectangle;html=1;whiteSpace=wrap;connectable=0;fillColor=none;top=0;left=0;bottom=0;right=0;align=left;spacingLeft=6;overflow=hidden;" vertex="1" parent="3c1BVGUAf-bqTjl7Y1fi-42">
          <mxGeometry x="70" width="70" height="20" as="geometry" />
        </mxCell>
        <mxCell id="3c1BVGUAf-bqTjl7Y1fi-79" value="Title in head of question." style="shape=partialRectangle;html=1;whiteSpace=wrap;connectable=0;fillColor=none;top=0;left=0;bottom=0;right=0;align=left;spacingLeft=6;overflow=hidden;" vertex="1" parent="3c1BVGUAf-bqTjl7Y1fi-42">
          <mxGeometry x="140" width="200" height="20" as="geometry" />
        </mxCell>
        <mxCell id="3c1BVGUAf-bqTjl7Y1fi-11" value="" style="shape=partialRectangle;html=1;whiteSpace=wrap;collapsible=0;dropTarget=0;pointerEvents=0;fillColor=none;top=0;left=0;bottom=0;right=0;points=[[0,0.5],[1,0.5]];portConstraint=eastwest;" vertex="1" parent="3c1BVGUAf-bqTjl7Y1fi-4">
          <mxGeometry y="90" width="340" height="20" as="geometry" />
        </mxCell>
        <mxCell id="3c1BVGUAf-bqTjl7Y1fi-12" value="desc" style="shape=partialRectangle;html=1;whiteSpace=wrap;connectable=0;fillColor=none;top=0;left=0;bottom=0;right=0;overflow=hidden;" vertex="1" parent="3c1BVGUAf-bqTjl7Y1fi-11">
          <mxGeometry width="70" height="20" as="geometry" />
        </mxCell>
        <mxCell id="3c1BVGUAf-bqTjl7Y1fi-13" value="String" style="shape=partialRectangle;html=1;whiteSpace=wrap;connectable=0;fillColor=none;top=0;left=0;bottom=0;right=0;align=left;spacingLeft=6;overflow=hidden;" vertex="1" parent="3c1BVGUAf-bqTjl7Y1fi-11">
          <mxGeometry x="70" width="70" height="20" as="geometry" />
        </mxCell>
        <mxCell id="3c1BVGUAf-bqTjl7Y1fi-80" value="Body for question." style="shape=partialRectangle;html=1;whiteSpace=wrap;connectable=0;fillColor=none;top=0;left=0;bottom=0;right=0;align=left;spacingLeft=6;overflow=hidden;" vertex="1" parent="3c1BVGUAf-bqTjl7Y1fi-11">
          <mxGeometry x="140" width="200" height="20" as="geometry" />
        </mxCell>
        <mxCell id="3c1BVGUAf-bqTjl7Y1fi-39" value="" style="shape=partialRectangle;html=1;whiteSpace=wrap;collapsible=0;dropTarget=0;pointerEvents=0;fillColor=none;top=0;left=0;bottom=0;right=0;points=[[0,0.5],[1,0.5]];portConstraint=eastwest;" vertex="1" parent="3c1BVGUAf-bqTjl7Y1fi-4">
          <mxGeometry y="110" width="340" height="20" as="geometry" />
        </mxCell>
        <mxCell id="3c1BVGUAf-bqTjl7Y1fi-40" value="updateAt" style="shape=partialRectangle;html=1;whiteSpace=wrap;connectable=0;fillColor=none;top=0;left=0;bottom=0;right=0;overflow=hidden;" vertex="1" parent="3c1BVGUAf-bqTjl7Y1fi-39">
          <mxGeometry width="70" height="20" as="geometry" />
        </mxCell>
        <mxCell id="3c1BVGUAf-bqTjl7Y1fi-41" value="String" style="shape=partialRectangle;html=1;whiteSpace=wrap;connectable=0;fillColor=none;top=0;left=0;bottom=0;right=0;align=left;spacingLeft=6;overflow=hidden;" vertex="1" parent="3c1BVGUAf-bqTjl7Y1fi-39">
          <mxGeometry x="70" width="70" height="20" as="geometry" />
        </mxCell>
        <mxCell id="3c1BVGUAf-bqTjl7Y1fi-81" value="Date of last update" style="shape=partialRectangle;html=1;whiteSpace=wrap;connectable=0;fillColor=none;top=0;left=0;bottom=0;right=0;align=left;spacingLeft=6;overflow=hidden;" vertex="1" parent="3c1BVGUAf-bqTjl7Y1fi-39">
          <mxGeometry x="140" width="200" height="20" as="geometry" />
        </mxCell>
        <mxCell id="3c1BVGUAf-bqTjl7Y1fi-82" style="shape=partialRectangle;html=1;whiteSpace=wrap;collapsible=0;dropTarget=0;pointerEvents=0;fillColor=none;top=0;left=0;bottom=0;right=0;points=[[0,0.5],[1,0.5]];portConstraint=eastwest;" vertex="1" parent="3c1BVGUAf-bqTjl7Y1fi-4">
          <mxGeometry y="130" width="340" height="20" as="geometry" />
        </mxCell>
        <mxCell id="3c1BVGUAf-bqTjl7Y1fi-83" style="shape=partialRectangle;html=1;whiteSpace=wrap;connectable=0;fillColor=none;top=0;left=0;bottom=0;right=0;overflow=hidden;" vertex="1" parent="3c1BVGUAf-bqTjl7Y1fi-82">
          <mxGeometry width="70" height="20" as="geometry" />
        </mxCell>
        <mxCell id="3c1BVGUAf-bqTjl7Y1fi-84" style="shape=partialRectangle;html=1;whiteSpace=wrap;connectable=0;fillColor=none;top=0;left=0;bottom=0;right=0;align=left;spacingLeft=6;overflow=hidden;" vertex="1" parent="3c1BVGUAf-bqTjl7Y1fi-82">
          <mxGeometry x="70" width="70" height="20" as="geometry" />
        </mxCell>
        <mxCell id="3c1BVGUAf-bqTjl7Y1fi-85" style="shape=partialRectangle;html=1;whiteSpace=wrap;connectable=0;fillColor=none;top=0;left=0;bottom=0;right=0;align=left;spacingLeft=6;overflow=hidden;" vertex="1" parent="3c1BVGUAf-bqTjl7Y1fi-82">
          <mxGeometry x="140" width="200" height="20" as="geometry" />
        </mxCell>
      </root>
    </mxGraphModel>
  </diagram>
</mxfile>
